<svg xmlns="http://www.w3.org/2000/svg" xmlns:xlink="http://www.w3.org/1999/xlink" width="500" zoomAndPan="magnify" viewBox="0 0 375 374.999991" height="500" preserveAspectRatio="xMidYMid meet" version="1.0"><defs><clipPath id="248979acd3"><path d="M 32 35 L 343 35 L 343 343 L 32 343 Z M 32 35 " clip-rule="nonzero"/></clipPath><clipPath id="6521284832"><path d="M 166.640625 35.488281 L 342.613281 186.429688 L 208.355469 342.953125 L 32.382812 192.011719 Z M 166.640625 35.488281 " clip-rule="nonzero"/></clipPath><clipPath id="55b2d4a84e"><path d="M 0.160156 0.28125 L 310.71875 0.28125 L 310.71875 307.960938 L 0.160156 307.960938 Z M 0.160156 0.28125 " clip-rule="nonzero"/></clipPath><clipPath id="d267bc2465"><path d="M 134.640625 0.488281 L 310.613281 151.429688 L 176.355469 307.953125 L 0.382812 157.011719 Z M 134.640625 0.488281 " clip-rule="nonzero"/></clipPath><clipPath id="0ff1757861"><rect x="0" width="311" y="0" height="308"/></clipPath><clipPath id="8df59b2e6c"><path d="M 32.382812 35.484375 L 342.882812 35.484375 L 342.882812 339.234375 L 32.382812 339.234375 Z M 32.382812 35.484375 " clip-rule="nonzero"/></clipPath></defs><g clip-path="url(#248979acd3)"><g clip-path="url(#6521284832)"><g transform="matrix(1, 0, 0, 1, 32, 35)"><g clip-path="url(#0ff1757861)"><g clip-path="url(#55b2d4a84e)"><g clip-path="url(#d267bc2465)"><path fill="#000000" d="M 134.640625 0.488281 L 310.730469 151.53125 L 176.472656 308.054688 L 0.382812 157.011719 Z M 134.640625 0.488281 " fill-opacity="1" fill-rule="nonzero"/></g></g></g></g></g></g><g clip-path="url(#8df59b2e6c)"><path fill="#ffffff" d="M 282.824219 192.683594 L 303.742188 210.898438 L 285.523438 231.816406 L 264.605469 213.601562 Z M 89.472656 146.398438 L 110.390625 164.613281 L 92.175781 185.53125 L 71.261719 167.316406 Z M 119.710938 111.683594 L 140.628906 129.902344 L 122.410156 150.820312 L 101.492188 132.601562 Z M 149.941406 76.96875 L 170.859375 95.1875 L 152.640625 116.105469 L 131.722656 97.886719 Z M 204.195312 222.84375 L 143.652344 222.84375 L 204.195312 149.929688 Z M 167.0625 35.484375 L 177.871094 44.902344 L 161.960938 63.175781 L 182.878906 81.390625 L 198.789062 63.117188 L 310.753906 160.621094 L 294.84375 178.894531 L 315.761719 197.109375 L 331.671875 178.839844 L 342.46875 188.238281 L 235.257812 311.363281 L 235.257812 249.421875 L 261.574219 249.421875 L 261.574219 222.84375 L 235.257812 222.84375 L 235.257812 105.183594 L 207.617188 105.183594 L 105.226562 226.257812 L 111.28125 249.421875 L 204.195312 249.421875 L 204.195312 339.476562 L 197.128906 333.328125 L 176.210938 315.109375 L 64.25 217.601562 L 80.164062 199.328125 L 59.25 181.117188 L 43.335938 199.390625 L 32.527344 189.976562 Z M 167.0625 35.484375 " fill-opacity="1" fill-rule="evenodd"/></g></svg>